<svg xmlns="http://www.w3.org/2000/svg" width="32" height="20.474" viewBox="0 0 32 20.474">
  <g id="_003-notebook-computer" data-name="003-notebook-computer" transform="translate(0 0)">
    <path id="Path_1489" data-name="Path 1489" d="M3.058,39.362H28.942a.972.972,0,0,0,.971-.971V21.751a.972.972,0,0,0-.971-.971H3.058a.972.972,0,0,0-.971.971v16.64A.972.972,0,0,0,3.058,39.362ZM2.919,21.751a.139.139,0,0,1,.139-.139H28.942a.139.139,0,0,1,.139.139v16.64a.139.139,0,0,1-.139.139H3.058a.139.139,0,0,1-.139-.139ZM32,40.1v.777a.373.373,0,0,1-.373.373H.373A.373.373,0,0,1,0,40.881V40.1H13.142a.524.524,0,0,0,.5.376h4.714a.524.524,0,0,0,.5-.376Z" transform="translate(0 -20.78)"/>
  </g>
</svg>
