<svg xmlns="http://www.w3.org/2000/svg" width="32" height="30.966" viewBox="0 0 32 30.966">
  <g id="_001-projector" data-name="001-projector" transform="translate(0 0)">
    <path id="Path_1484" data-name="Path 1484" d="M38.96,11.364H27.809a2.575,2.575,0,0,0-2.524-2.078H21.625A2.575,2.575,0,0,0,19.1,11.364H7.95a.5.5,0,0,0-.5.5v2.405a.5.5,0,0,0,.5.5H9.082v19.51a.5.5,0,0,0,.5.5H22.96v1.793a1.88,1.88,0,1,0,.99,0V34.766H37.333a.5.5,0,0,0,.5-.5V14.76H38.96a.5.5,0,0,0,.5-.5V11.86a.5.5,0,0,0-.495-.5ZM24.345,38.371a.89.89,0,1,1-.89-.889A.89.89,0,0,1,24.345,38.371ZM21.625,10.276h3.659a1.585,1.585,0,0,1,1.5,1.087H20.123A1.585,1.585,0,0,1,21.625,10.276Zm15.212,23.5H10.073V14.76H36.838ZM38.465,13.77H8.445V12.355h30.02Z" transform="translate(-7.455 -9.286)"/>
    <path id="Path_1485" data-name="Path 1485" d="M17.443,20.88H15.66a.449.449,0,0,0,0,.9h1.783a.449.449,0,0,0,0-.9Z" transform="translate(-13.22 -17.904)"/>
  </g>
</svg>
